<?xml version="1.0" encoding="UTF-8"?>
<!DOCTYPE svg PUBLIC "-//W3C//DTD SVG 1.1//EN" "http://www.w3.org/Graphics/SVG/1.1/DTD/svg11.dtd">
<!-- Creator: CorelDRAW -->
<svg xmlns="http://www.w3.org/2000/svg" xml:space="preserve" width="84.2018mm" height="60mm" version="1.1" style="shape-rendering:geometricPrecision; text-rendering:geometricPrecision; image-rendering:optimizeQuality; fill-rule:evenodd; clip-rule:evenodd"
viewBox="0 0 42036.9 29954.39"
 xmlns:xlink="http://www.w3.org/1999/xlink"
 xmlns:xodm="http://www.corel.com/coreldraw/odm/2003">
 <defs>
  <style type="text/css">
   <![CDATA[
    .fil1 {fill:#04243D;fill-rule:nonzero}
    .fil2 {fill:#AD246D;fill-rule:nonzero}
    .fil0 {fill:#AD256D;fill-rule:nonzero}
    .fil4 {fill:white;fill-rule:nonzero}
    .fil3 {fill:url(#id0)}
   ]]>
  </style>
  <linearGradient id="id0" gradientUnits="userSpaceOnUse" x1="21017.1" y1="204.19" x2="21017.1" y2="22346.18">
   <stop offset="0" style="stop-opacity:1; stop-color:#60489C"/>
   <stop offset="1" style="stop-opacity:1; stop-color:#AD256D"/>
  </linearGradient>
 </defs>
 <g id="Camada_x0020_1">
  <metadata id="CorelCorpID_0Corel-Layer"/>
  <g id="_1166102736">
   <path class="fil0" d="M278.58 24180.78l0 0c153.87,0 278.48,124.71 278.48,278.58l0 4538.19c0,198.4 160.95,359.25 359.25,359.25l2023.12 0c138.09,0 250.22,112.13 250.22,250.42l0 0c0,138.19 -112.13,250.22 -250.22,250.22l-2236.79 0c-388.01,0 -702.63,-314.52 -702.63,-702.53l0 -4695.55c0,-153.87 124.61,-278.58 278.58,-278.58z"/>
   <path class="fil0" d="M4567.75 26272.4c0,0 398.59,-32.55 907.42,-32.55 1138.47,0 1954.12,823.65 1954.12,1849.18 0,1049.8 -864.08,1865.36 -1970.4,1865.36 -774.12,0 -1268.07,-378.62 -1502.41,-617.36 -97.65,-99.35 -99.35,-257.31 -5.29,-360.05l0 0c99.95,-108.93 269.69,-114.33 375.33,-10.88 198.3,194.2 565.74,455.31 1108.21,455.31 783.21,0 1413.05,-557.15 1413.05,-1332.37 0,-775.12 -629.84,-1332.37 -1437.21,-1332.37 -421.36,0 -756.65,41.84 -921.8,130.9 -78.78,42.54 -172.84,45.73 -257.01,15.08 -123.21,-44.83 -199.8,-168.24 -185.32,-298.65l41.14 -2201.15c14.08,-126.41 121.02,-222.06 248.22,-222.06l2271.64 0c138.29,0 250.42,112.03 250.42,250.22 0,138.29 -112.13,250.32 -250.42,250.32l-1883.43 0c-72.39,0 -133.2,54.42 -141.19,126.41l-15.08 1464.67z"/>
   <path class="fil1" d="M10417.64 25795.73l541.08 0 0 605.58c0,177.73 -16.18,323.01 -16.18,323.01l16.18 0c145.38,-371.43 662.19,-1025.54 1623.13,-1025.54 1001.18,0 1356.63,573.43 1356.63,1574.7l0 2584.07 -549.26 0 0 -2438.79c0,-637.83 -96.75,-1203.27 -880.06,-1203.27 -694.44,0 -1292.03,476.57 -1477.85,1146.85 -48.43,169.54 -64.5,355.26 -64.5,549.06l0 1946.14 -549.16 0 0 -4061.82z"/>
   <path class="fil1" d="M17848.92 27402.68c-32.35,-847.91 -549.26,-1243.51 -1154.84,-1243.51 -678.17,0 -1267.77,427.95 -1396.87,1243.51l2551.71 0zm-1138.67 -1703.91c1122.49,0 1695.82,864.08 1695.82,1873.45 0,96.85 -16.08,282.67 -16.08,282.67l-3116.95 0c24.16,1041.71 734.78,1606.95 1574.5,1606.95 742.97,0 1235.52,-492.65 1235.52,-492.65l250.32 419.96c0,0 -589.5,565.24 -1501.91,565.24 -1211.26,0 -2123.87,-872.17 -2123.87,-2123.67 0,-1332.47 904.42,-2131.95 2002.65,-2131.95z"/>
   <polygon class="fil1" points="19609.44,29849.65 19609.44,26304.45 18774.22,26304.45 18774.22,25844.15 19617.63,25844.15 19617.63,24673.23 20158.71,24673.23 20158.71,25844.15 21038.17,25844.15 21038.17,26304.45 20158.71,26304.45 20158.71,29849.65 "/>
   <path class="fil1" d="M21636.56 25795.73l581.41 0 985.2 3028.09c64.5,193.8 121.12,436.14 121.12,436.14l16.18 0c0,0 56.41,-242.33 121.02,-436.14l1001.38 -3011.91 541.08 0 1001.28 3011.91c64.7,193.8 121.02,436.14 121.02,436.14l16.08 0c0,0 56.71,-234.24 121.32,-436.14l985.1 -3028.09 581.31 0 -1372.51 4061.82 -597.79 0 -993.19 -2891c-72.59,-201.79 -129,-435.94 -129,-435.94l-16.18 0c0,0 -56.61,234.14 -121.22,435.94l-993.29 2891 -597.49 0 -1372.81 -4061.82z"/>
   <path class="fil1" d="M30154.89 29461.84c872.27,0 1582.79,-710.72 1582.79,-1655.48 0,-920.5 -710.52,-1606.95 -1582.79,-1606.95 -871.97,0 -1582.69,686.45 -1582.69,1606.95 0,944.76 710.72,1655.48 1582.69,1655.48zm0 -3763.07c1187.09,0 2148.23,904.42 2148.23,2107.59 0,1227.43 -961.14,2148.03 -2148.23,2148.03 -1186.79,0 -2147.93,-920.6 -2147.93,-2148.03 0,-1203.17 961.14,-2107.59 2147.93,-2107.59z"/>
   <path class="fil1" d="M33004.55 25795.73l541.08 0 0 718.71c0,177.63 -15.98,322.91 -15.98,322.91l15.98 0c193.8,-613.67 646.02,-1081.95 1284.04,-1081.95 113.03,0 218.07,24.26 218.07,24.26l0 540.88c0,0 -96.95,-16.08 -201.99,-16.08 -573.33,0 -1001.28,452.21 -1178.91,1049.7 -80.88,258.51 -113.03,532.99 -113.03,791.49l0 1711.89 -549.26 0 0 -4061.82z"/>
   <polygon class="fil1" points="35663.3,24180.78 36212.57,24180.78 36212.57,27346.16 36858.58,27346.16 38077.83,25795.73 38739.92,25795.73 37326.77,27564.23 37326.77,27580.41 38877.41,29857.44 38223.3,29857.44 36866.57,27822.54 36212.57,27822.54 36212.57,29857.44 35663.3,29857.44 "/>
   <path class="fil1" d="M39444.84 28969.19c0,0 452.21,492.65 1211.36,492.65 435.94,0 815.46,-218.07 815.46,-646.12 0,-888.15 -2188.37,-670.08 -2188.37,-1994.46 0,-726.79 654.2,-1122.49 1389.09,-1122.49 855.8,0 1251.49,444.22 1251.49,444.22l-250.22 419.96c0,0 -347.47,-371.53 -1017.45,-371.53 -411.97,0 -807.67,177.63 -807.67,629.84 0,896.34 2188.37,654.1 2188.37,1994.46 0,662.29 -573.23,1138.67 -1388.99,1138.67 -985,0 -1501.81,-589.4 -1501.81,-589.4l298.75 -395.8z"/>
   <path class="fil2" d="M8469.11 28857.56c-99.65,56.11 -149.37,133.1 -149.37,230.65l0 496.34c0,97.65 49.72,174.53 149.37,230.55 87.47,48.93 194.3,73.29 320.01,73.29 124.91,0 231.15,-24.36 318.81,-73.29 99.65,-56.01 149.27,-132.9 149.27,-230.55l0 -496.34c0,-97.55 -49.62,-174.53 -149.27,-230.65 -87.67,-48.73 -193.9,-73.19 -318.81,-73.19 -125.71,0 -232.55,24.46 -320.01,73.19z"/>
   <path class="fil3" d="M11552.91 6134.36l0 10021.74c0,1971.3 1005.87,3522.44 3016.81,4655.81 1768.21,985.6 3921.43,1478.75 6459.47,1478.75 2523.26,0 4669.49,-493.15 6438.4,-1478.75 2010.84,-1133.37 3016.31,-2684.51 3016.31,-4655.81l0 -10021.74c0,-1970.4 -1005.47,-3522.94 -3016.31,-4656.71 -1768.91,-984.9 -3915.14,-1477.65 -6438.4,-1477.65 -2538.04,0 -4691.26,492.75 -6459.47,1477.65 -2010.94,1133.77 -3016.81,2686.31 -3016.81,4656.71z"/>
   <path class="fil4" d="M23120.6 10630.12l-882.76 0 0 -938.97 3295.98 0c797.39,0 1445.4,-648.21 1445.4,-1445.3 0,-797.09 -648.01,-1445.3 -1445.4,-1445.3l-4740.38 0c-796.89,0 -1445.1,648.21 -1445.1,1445.3l0 2384.27 -1400.67 0 0 -5242.82c0,-796.69 -648.11,-1445.3 -1445.1,-1445.3 -796.89,0 -1445.2,648.61 -1445.2,1445.3l0 6687.62c0,797.59 648.31,1445.8 1445.2,1445.8l2759.6 0 0 985.2c0,4.09 1,7.49 1,11.68 5.69,859.29 287.96,1670.26 816.56,2346.73 736.88,943.06 1844.89,1484.54 3040.87,1484.54 2127.66,0 3858.63,-1731.96 3858.63,-3860.02 0,-2127.66 -1730.96,-3858.72 -3858.63,-3858.72zm-3026.99 -2384.27c0,-386.31 313.62,-700.33 699.83,-700.33l4740.38 0c386.31,0 700.53,314.02 700.53,700.33 0,386.21 -314.22,700.33 -700.53,700.33l-3668.31 0c-205.89,0 -371.63,166.45 -371.63,372.43l0 1311.5 -1400.27 0 0 -2384.27zm3026.99 9358.05c-964.83,0 -1859.17,-437.53 -2453.96,-1198.48 -431.24,-551.76 -659.3,-1214.15 -659.3,-1916.58 0,-385.81 313.92,-699.93 700.23,-699.93 386.21,0 700.23,314.12 700.23,699.93l0 17.07c0,4.09 0.5,7.49 0.5,10.88 5.79,363.75 123.51,709.42 341.28,1000.68 327.3,435.44 827.14,685.26 1371.01,685.26 944.26,0 1713.09,-769.23 1713.09,-1713.89 0,-944.76 -768.83,-1713.09 -1713.09,-1713.09l-6618.02 0c-386.01,0 -700.63,-314.12 -700.63,-700.83l0 -6687.62c0,-385.71 314.62,-700.33 700.63,-700.33 386.31,0 700.23,314.62 700.23,700.33l0 5615.25c0,205.69 166.85,372.53 372.73,372.53l5545.06 0c1716.99,0 3113.76,1396.87 3113.76,3113.76 0,1717.29 -1396.77,3115.06 -3113.76,3115.06zm-968.63 -3115.06l0 -968.13 968.63 0c533.69,0 968.03,434.14 968.03,968.13 0,534.29 -434.34,968.53 -968.03,968.53 -307.83,0 -590,-140.99 -775.12,-387.51 -126.41,-168.44 -193.51,-369.14 -193.51,-581.02z"/>
  </g>
 </g>
</svg>
